<svg width="180" height="40" viewBox="0 0 180 40" fill="none" xmlns="http://www.w3.org/2000/svg">
<g id="Logo" clip-path="url(#clip0_1258_1182)">
<path id="Vector" d="M22.9296 16.7441H20.6289V22.4118H22.9296V16.7441Z" fill="#E2E2E2"/>
<path id="Vector_2" d="M19.4804 16.7441H17.1797V22.4118H19.4804V16.7441Z" fill="#FDCD63"/>
<g id="Group">
<path id="Vector_3" fill-rule="evenodd" clip-rule="evenodd" d="M4.79968 0.803635H1V15.1916H4.79968V0.803635ZM1 34.5974V38.3431H15.5967V34.5974H1ZM39.1168 23.9816H35.3171V38.3707H39.1168V23.9816ZM39.1168 4.54156V0.795898H24.5201V4.54156H39.1168ZM15.5967 16.7434H11.797V29.4094H4.79968V16.7434H1V33.1551H28.4992V29.4094H15.5967V16.7434ZM22.9292 15.1927V11.4471H10.0804V4.54929H22.9292V0.803635H6.28076V27.9118H10.0804V15.1927H22.9292ZM24.5201 22.4133H28.3198V9.74723H35.3171V22.4133H39.1168V6.00158H11.6176V9.74723H24.5201V22.4133ZM17.1876 23.9816V27.7273H30.0363V34.6251H17.1876V38.3707H33.836V11.2625H30.0363V23.9816H17.1876Z" fill="#378BC8"/>
</g>
<path id="Vector_4" d="M69.0767 5.46875H68.0889C67.3624 2.71892 66.258 2.31771 64.1076 2.31771H57.5117V9.13483H62.5682C64.37 9.13483 65.1828 8.67726 65.1828 6.385H66.1706V13.2883H65.1828C65.212 11.1972 64.3408 10.6822 62.7712 10.6822H57.5117V16.1531C57.5117 18.473 58.1216 19.1328 60.3012 19.1328H61.4347V20.0491H49.9561V19.1328H50.7409C52.8913 19.1328 53.5012 18.4741 53.5012 16.1531V4.63872C53.5012 2.34756 52.8913 1.68883 50.7409 1.68883H49.9561V0.771484H68.8154L69.0767 5.46875Z" fill="#378BC8"/>
<path id="Vector_5" d="M70.9004 20.0502V19.1339H71.6561C73.9522 19.1339 74.4456 18.389 74.4456 16.1542V4.66745C74.4456 2.37629 73.8939 1.68773 71.6561 1.68773H70.9004V0.771484H81.8263V1.68773H81.2164C79.066 1.68773 78.456 2.34645 78.456 4.66745V16.1542C78.456 18.4741 79.066 19.1339 81.2164 19.1339H81.8263V20.0502H70.9004Z" fill="#378BC8"/>
<path id="Vector_6" d="M103.409 17.7579C104.193 18.6753 105.036 19.019 106.693 19.1328V20.0491H100.474L93.1221 11.4547H91.2037V16.1531C91.2037 18.6167 91.8137 19.1328 94.4877 19.1328V20.0491H83.9688V19.1328C86.5833 19.1616 87.1944 18.6465 87.1944 16.1531V4.32262C87.1944 2.00272 86.0328 1.60152 83.9688 1.68773V0.771484H95.4474C99.3121 0.771484 102.595 2.11767 102.595 5.69864C102.595 8.21969 100.532 10.3672 97.5687 10.9695L103.409 17.7579ZM93.5582 9.96708C96.5809 9.96708 98.062 8.13348 98.062 6.01474C98.062 3.72247 96.3477 2.26245 93.6165 2.26245C92.6288 2.26245 91.7565 2.40503 91.2048 2.63492V9.96818H93.5582V9.96708Z" fill="#378BC8"/>
<path id="Vector_7" d="M137.398 0.771484V1.68773H136.846C134.667 1.68773 134.028 2.34645 134.028 4.66745V16.1542C134.028 18.4741 134.638 19.1339 136.846 19.1339H137.398V20.0502H126.676V19.1339H127.257C129.407 19.1339 130.017 18.4752 130.017 16.1542V3.69374H129.959L122.2 20.0502H121.299L113.482 3.97999H113.424V16.1542C113.424 18.4741 114.005 19.219 116.591 19.1339V20.0502H108.745V19.1339C111.447 19.1903 111.971 18.5614 111.971 16.1542V4.66745C111.971 2.57634 111.564 1.68773 109.21 1.68773H108.745V0.771484H116.329L123.1 14.7793L129.783 0.771484H137.398Z" fill="#378BC8"/>
<path id="Vector_8" d="M149.878 0.771484V1.66231H149.227C147.08 1.66231 146.486 2.30335 146.486 4.55914V12.8584C146.486 16.5908 149.311 18.2343 152.307 18.2343C155.839 18.2343 158.72 16.1177 158.72 12.6086V4.25299C158.72 2.30335 157.845 1.66231 156.319 1.66231H155.556V0.771484H163.241V1.66231H162.817C160.726 1.66231 160.133 2.30335 160.133 4.55914V12.4406C160.133 17.7612 155.951 20.0447 151.488 20.0447C146.685 20.0447 142.588 17.7612 142.588 13.2762V4.22425C142.588 2.4415 141.909 1.66231 140.073 1.66231H139.311V0.771484H149.878Z" fill="#378BC8"/>
<path id="Vector_9" d="M165.249 13.5953C166.47 16.6314 168.939 18.601 171.52 18.601C173.379 18.601 174.711 17.4803 174.711 15.8931C174.711 15.2366 174.545 14.4983 173.712 13.6782C172.325 12.3111 167.663 10.5327 165.859 8.7555C165.054 7.96194 164.416 6.75834 164.416 5.47294C164.416 2.76511 166.886 0.769043 170.188 0.769043C172.685 0.769043 174.156 1.69855 175.266 1.69855C175.793 1.69855 176.098 1.42556 176.293 0.769043H177.209V6.75944H176.349C175.184 3.91455 172.908 2.08207 170.55 2.08207C168.885 2.08207 167.803 2.95742 167.803 4.29697C167.803 4.89932 167.942 5.36352 168.552 5.96588C169.773 7.16949 174.629 8.86492 176.627 10.8345C177.931 12.1199 178.347 13.4329 178.347 14.8001C178.347 17.782 175.766 20.0256 172.353 20.0256C169.8 20.0256 167.747 18.7944 166.748 18.7944C166.026 18.7944 165.416 19.2873 165.249 19.998H164.361V13.5976H165.249V13.5953Z" fill="#378BC8"/>
<path id="Vector_10" d="M179.197 25.1255H49.7666V25.9036H179.197V25.1255Z" fill="#5F5F5F"/>
<path id="Vector_11" d="M179.197 37.5923H49.7666V38.3704H179.197V37.5923Z" fill="#5F5F5F"/>
<g id="Group_2">
<path id="Vector_12" d="M67.7631 29.9232H67.3931C67.1207 28.8921 66.707 28.7417 65.9008 28.7417H63.4286V31.2982H65.3234C65.9984 31.2982 66.3033 31.1257 66.3033 30.267H66.6745V32.8543H66.3033C66.3146 32.0707 65.9872 31.8773 65.3997 31.8773H63.4286V33.9275C63.4286 34.7974 63.6574 35.0438 64.4747 35.0438H64.8996V35.3875H60.5977V35.0438H60.8914C61.6975 35.0438 61.9263 34.7962 61.9263 33.9275V29.6127C61.9263 28.7528 61.6975 28.5063 60.8914 28.5063H60.5977V28.1626H67.6667L67.7631 29.9232Z" fill="#5F5F5F"/>
<path id="Vector_13" d="M69.4482 35.3875V35.0438H69.7319C70.5919 35.0438 70.778 34.7653 70.778 33.9275V29.6226C70.778 28.7638 70.5705 28.5063 69.7319 28.5063H69.4482V28.1626H73.5428V28.5063H73.3141C72.5079 28.5063 72.2803 28.7539 72.2803 29.6226V33.9275C72.2803 34.7974 72.5091 35.0438 73.3141 35.0438H73.5428V35.3875H69.4482Z" fill="#5F5F5F"/>
<path id="Vector_14" d="M84.2248 28.1618V28.5055H83.8761C83.1899 28.5055 82.9612 28.8061 82.9612 29.6218V35.4519H82.7538L77.0144 29.7942V33.9267C77.0144 34.7965 77.2432 35.043 78.0605 35.043H78.3879V35.3867H75.1309V35.043H75.5446C76.1758 35.043 76.4707 34.7744 76.4707 34.0449V29.267C76.1119 28.8161 75.632 28.5475 75.1309 28.5044V28.1606H77.4719L82.4163 33.0889V29.5035C82.4163 28.805 82.1438 28.5044 81.5014 28.5044H81.0765V28.1606H84.2248V28.1618Z" fill="#5F5F5F"/>
<path id="Vector_15" d="M87.1946 33.8945C87.0746 34.1532 87.0096 34.3355 87.0096 34.4637C87.0096 34.8285 87.3145 35.0318 87.9132 35.0429V35.3866H85.2773V35.0429C85.7785 35.0318 86.1597 34.7312 86.5521 33.8934L89.2968 28.0312H89.613L92.8801 34.4306C93.1301 34.9136 93.3588 35.0097 93.8712 35.0429V35.3866H90.5391V35.0429C91.1703 35.0318 91.3228 34.9246 91.3228 34.6671C91.3228 34.5267 91.2577 34.3344 91.1165 34.0769L90.779 33.4536H87.4031L87.1946 33.8945ZM89.0131 30.0196L87.6733 32.8755H90.4729L89.0131 30.0196Z" fill="#5F5F5F"/>
<path id="Vector_16" d="M104.518 28.1618V28.5055H104.169C103.483 28.5055 103.254 28.8061 103.254 29.6218V35.4519H103.047L97.3074 29.7942V33.9267C97.3074 34.7965 97.5361 35.043 98.3535 35.043H98.6809V35.3867H95.4238V35.043H95.8375C96.4688 35.043 96.7636 34.7744 96.7636 34.0449V29.267C96.4049 28.8161 95.925 28.5475 95.4238 28.5044V28.1606H97.7649L102.709 33.0889V29.5035C102.709 28.805 102.437 28.5044 101.794 28.5044H101.369V28.1606H104.518V28.1618Z" fill="#5F5F5F"/>
<path id="Vector_17" d="M114.043 33.5617C113.303 34.9035 112.126 35.591 110.58 35.591C107.846 35.591 106.321 33.7021 106.321 31.8442C106.321 29.7398 108.25 28.0322 110.656 28.0322C111.788 28.0322 112.54 28.4412 112.889 28.4412C113.107 28.4412 113.248 28.2798 113.248 28.0322H113.597L113.782 30.4372H113.423C112.977 29.2988 111.898 28.5484 110.798 28.5484C109.163 28.5484 108.021 29.8901 108.021 31.8121C108.021 33.6369 109.23 34.9256 110.973 34.9256C112.105 34.9256 113.02 34.3896 113.707 33.3263L114.043 33.5617Z" fill="#5F5F5F"/>
<path id="Vector_18" d="M115.598 35.3875V35.0438H115.881C116.741 35.0438 116.927 34.7653 116.927 33.9275V29.6226C116.927 28.7638 116.72 28.5063 115.881 28.5063H115.598V28.1626H119.692V28.5063H119.463C118.657 28.5063 118.43 28.7539 118.43 29.6226V33.9275C118.43 34.7974 118.658 35.0438 119.463 35.0438H119.692V35.3875H115.598Z" fill="#5F5F5F"/>
<path id="Vector_19" d="M123.11 33.8945C122.99 34.1532 122.925 34.3355 122.925 34.4637C122.925 34.8285 123.23 35.0318 123.828 35.0429V35.3866H121.192V35.0429C121.694 35.0318 122.075 34.7312 122.467 33.8934L125.212 28.0312H125.528L128.795 34.4306C129.045 34.9136 129.274 35.0097 129.786 35.0429V35.3866H126.454V35.0429C127.085 35.0318 127.238 34.9246 127.238 34.6671C127.238 34.5267 127.173 34.3344 127.031 34.0769L126.694 33.4536H123.318L123.11 33.8945ZM124.928 30.0196L123.588 32.8755H126.388L124.928 30.0196Z" fill="#5F5F5F"/>
<path id="Vector_20" d="M138.571 33.4335L137.907 35.3875H131.263V35.0438H131.514C132.32 35.0438 132.549 34.8073 132.549 33.9386V29.6226C132.549 28.828 132.374 28.5063 131.514 28.5063H131.328V28.1626H135.347V28.5063H135.096C134.291 28.5063 134.05 28.7539 134.05 29.6226V34.0679C134.05 34.7332 134.115 34.8084 134.725 34.8084H136.053C137.088 34.8084 137.567 34.626 138.21 33.4346H138.571V33.4335Z" fill="#5F5F5F"/>
<path id="Vector_21" d="M144.066 35.3875V35.0438H144.35C145.21 35.0438 145.396 34.7653 145.396 33.9275V29.6226C145.396 28.7638 145.189 28.5063 144.35 28.5063H144.066V28.1626H148.161V28.5063H147.932C147.126 28.5063 146.897 28.7539 146.897 29.6226V33.9275C146.897 34.7974 147.126 35.0438 147.932 35.0438H148.161V35.3875H144.066Z" fill="#5F5F5F"/>
<path id="Vector_22" d="M158.842 28.1618V28.5055H158.493C157.807 28.5055 157.578 28.8061 157.578 29.6218V35.4519H157.371L151.631 29.7942V33.9267C151.631 34.7965 151.86 35.043 152.678 35.043H153.005V35.3867H149.749V35.043H150.163C150.794 35.043 151.089 34.7744 151.089 34.0449V29.267C150.73 28.8161 150.25 28.5475 149.749 28.5044V28.1606H152.09L157.034 33.0889V29.5035C157.034 28.805 156.762 28.5044 156.12 28.5044H155.695V28.1606H158.842V28.1618Z" fill="#5F5F5F"/>
<path id="Vector_23" d="M168.368 33.5617C167.628 34.9035 166.451 35.591 164.905 35.591C162.171 35.591 160.646 33.7021 160.646 31.8442C160.646 29.7398 162.574 28.0322 164.981 28.0322C166.113 28.0322 166.866 28.4412 167.214 28.4412C167.432 28.4412 167.573 28.2798 167.573 28.0322H167.922L168.107 30.4372H167.748C167.302 29.2988 166.223 28.5484 165.123 28.5484C163.49 28.5484 162.346 29.8901 162.346 31.8121C162.346 33.6369 163.555 34.9256 165.298 34.9256C166.431 34.9256 167.346 34.3896 168.032 33.3263L168.368 33.5617Z" fill="#5F5F5F"/>
</g>
</g>
<defs>
<clipPath id="clip0_1258_1182">
<rect width="180" height="39.1111" fill="white"/>
</clipPath>
</defs>
</svg>
