<?xml version="1.0" encoding="utf-8"?>
<!-- Generator: Adobe Illustrator 25.2.3, SVG Export Plug-In . SVG Version: 6.00 Build 0)  -->
<svg version="1.1" id="Layer_1" xmlns="http://www.w3.org/2000/svg" xmlns:xlink="http://www.w3.org/1999/xlink" x="0px" y="0px"
	 viewBox="0 0 1605.45 353.87" style="enable-background:new 0 0 1605.45 353.87;" xml:space="preserve">
<style type="text/css">
	.st0{fill-rule:evenodd;clip-rule:evenodd;fill:#C7C6C6;}
	.st1{fill-rule:evenodd;clip-rule:evenodd;fill:#ECC747;}
	.st2{fill-rule:evenodd;clip-rule:evenodd;fill:#358CCB;}
	.st3{fill:#358CCB;}
	.st4{fill:#7F7F80;}
</style>
<rect x="183.99" y="151.5" class="st0" width="20.52" height="51.28"/>
<rect x="153.23" y="151.5" class="st1" width="20.52" height="51.28"/>
<g>
	<path class="st2" d="M42.81,7.27H8.92v130.18l33.89,0V7.27z M8.92,313.03v33.89h130.19l0-33.89H8.92z M348.89,216.98H315v130.19
		l33.89,0V216.98z M348.89,41.09V7.2H218.7l0,33.89H348.89z M139.11,151.49l-33.89,0l0,114.6l-62.41,0v-114.6l-33.89,0v148.49
		l245.27,0v-33.89l-115.08,0L139.11,151.49z M204.51,137.46l0-33.89l-114.6,0l0-62.41h114.6l0-33.89H56.02l0,245.27h33.89l0-115.08
		L204.51,137.46z M218.7,202.79l33.89,0l0-114.6l62.41,0v114.6l33.89,0V54.3l-245.27,0l0,33.89l115.08,0L218.7,202.79z
		 M153.3,216.98v33.89l114.6,0l0,62.41H153.3l0,33.89h148.49l0-245.27l-33.89,0l0,115.08L153.3,216.98z"/>
</g>
<path class="st3" d="M616.11,49.48h-8.81c-6.48-24.88-16.33-28.51-35.51-28.51h-58.83v61.68h45.1c16.07,0,23.32-4.14,23.32-24.88
	h8.81v62.46h-8.81c0.26-18.92-7.51-23.58-21.51-23.58h-46.91v49.5c0,20.99,5.44,26.96,24.88,26.96h10.11v8.29H445.57v-8.29h7
	c19.18,0,24.62-5.96,24.62-26.96V41.97c0-20.73-5.44-26.69-24.62-26.69h-7V6.98h168.21L616.11,49.48z"/>
<path class="st3" d="M632.37,181.41v-8.29h6.74c20.48,0,24.88-6.74,24.88-26.96V42.23c0-20.73-4.92-26.96-24.88-26.96h-6.74V6.98
	h97.45v8.29h-5.44c-19.18,0-24.62,5.96-24.62,26.96v103.93c0,20.99,5.44,26.96,24.62,26.96h5.44v8.29H632.37z"/>
<path class="st3" d="M922.32,160.67c6.99,8.3,14.51,11.41,29.29,12.44v8.29h-55.47l-65.57-77.76h-17.11v42.51
	c0,22.29,5.44,26.96,29.29,26.96v8.29h-93.82v-8.29c23.32,0.26,28.77-4.4,28.77-26.96V39.11c0-20.99-10.36-24.62-28.77-23.84V6.98
	h102.38c34.47,0,63.75,12.18,63.75,44.58c0,22.81-18.4,42.24-44.83,47.69L922.32,160.67z M834.46,90.18
	c26.96,0,40.17-16.59,40.17-35.76c0-20.74-15.29-33.95-39.65-33.95c-8.81,0-16.59,1.29-21.51,3.37v66.35H834.46z"/>
<path class="st3" d="M1225.48,6.98v8.29h-4.92c-19.44,0-25.14,5.96-25.14,26.96v103.93c0,20.99,5.44,26.96,25.14,26.96h4.92v8.29
	h-95.63v-8.29h5.18c19.18,0,24.62-5.96,24.62-26.96V33.42h-0.52l-69.2,147.99h-8.04l-69.72-145.4h-0.52v110.15
	c0,20.99,5.18,27.73,28.25,26.96v8.29h-69.98v-8.29c24.1,0.51,28.77-5.18,28.77-26.96V42.23c0-18.92-3.63-26.96-24.62-26.96h-4.15
	V6.98h67.64l60.39,126.74l59.61-126.74H1225.48z"/>
<path class="st3" d="M1336.78,6.98v8.06h-5.8c-19.15,0-24.45,5.8-24.45,26.21v75.09c0,33.77,25.2,48.64,51.92,48.64
	c31.5,0,57.2-19.15,57.2-50.9v-75.6c0-17.64-7.81-23.44-21.42-23.44h-6.8V6.98h68.54v8.06h-3.78c-18.65,0-23.94,5.8-23.94,26.21
	v71.31c0,48.14-37.3,68.8-77.11,68.8c-42.84,0-79.38-20.66-79.38-61.24v-81.9c0-16.13-6.05-23.18-22.43-23.18h-6.8V6.98H1336.78z"/>
<path class="st3" d="M1473.89,123.01c10.89,27.47,32.91,45.29,55.93,45.29c16.58,0,28.46-10.14,28.46-24.5
	c0-5.94-1.48-12.62-8.91-20.04c-12.37-12.37-53.95-28.46-70.04-44.54c-7.18-7.18-12.87-18.07-12.87-29.7
	c0-24.5,22.03-42.56,51.48-42.56c22.27,0,35.39,8.41,45.29,8.41c4.7,0,7.42-2.47,9.16-8.41h8.17v54.2h-7.67
	c-10.39-25.74-30.69-42.32-51.72-42.32c-14.85,0-24.5,7.92-24.5,20.04c0,5.45,1.24,9.65,6.68,15.1
	c10.89,10.89,54.2,26.23,72.02,44.05c11.63,11.63,15.34,23.51,15.34,35.88c0,26.98-23.02,47.28-53.46,47.28
	c-22.77,0-41.08-11.14-49.99-11.14c-6.44,0-11.88,4.46-13.37,10.89h-7.92v-57.91H1473.89z"/>
<rect x="443.88" y="227.33" class="st4" width="1154.41" height="7.04"/>
<rect x="443.88" y="340.13" class="st4" width="1154.41" height="7.04"/>
<g>
	<path class="st4" d="M604.39,270.74h-3.3c-2.43-9.33-6.12-10.69-13.31-10.69h-22.05v23.13h16.9c6.02,0,8.74-1.56,8.74-9.33h3.31
		v23.41h-3.31c0.1-7.09-2.82-8.84-8.06-8.84h-17.58v18.55c0,7.87,2.04,10.1,9.33,10.1h3.79v3.11h-38.37v-3.11h2.62
		c7.19,0,9.23-2.24,9.23-10.1v-39.04c0-7.78-2.04-10.01-9.23-10.01h-2.62v-3.11h63.05L604.39,270.74z"/>
	<path class="st4" d="M619.42,320.18v-3.11h2.53c7.67,0,9.33-2.52,9.33-10.1v-38.95c0-7.77-1.85-10.1-9.33-10.1h-2.53v-3.11h36.52
		v3.11h-2.04c-7.19,0-9.22,2.24-9.22,10.1v38.95c0,7.87,2.04,10.1,9.22,10.1h2.04v3.11H619.42z"/>
	<path class="st4" d="M751.21,254.8v3.11h-3.11c-6.12,0-8.16,2.72-8.16,10.1v52.75h-1.85l-51.19-51.19v37.39
		c0,7.87,2.04,10.1,9.33,10.1h2.92v3.11H670.1v-3.11h3.69c5.63,0,8.26-2.43,8.26-9.03v-43.23c-3.2-4.08-7.48-6.51-11.95-6.9v-3.11
		h20.88l44.1,44.59v-32.44c0-6.32-2.43-9.04-8.16-9.04h-3.79v-3.11H751.21z"/>
	<path class="st4" d="M777.7,306.67c-1.07,2.34-1.65,3.99-1.65,5.15c0,3.3,2.72,5.14,8.06,5.24v3.11H760.6v-3.11
		c4.47-0.1,7.87-2.82,11.37-10.4l24.48-53.04h2.82l29.14,57.9c2.23,4.37,4.27,5.24,8.84,5.54v3.11h-29.72v-3.11
		c5.63-0.1,6.99-1.07,6.99-3.4c0-1.27-0.58-3.01-1.84-5.34l-3.01-5.64h-30.11L777.7,306.67z M793.92,271.61l-11.95,25.84h24.97
		L793.92,271.61z"/>
	<path class="st4" d="M932.21,254.8v3.11h-3.11c-6.12,0-8.16,2.72-8.16,10.1v52.75h-1.85l-51.19-51.19v37.39
		c0,7.87,2.04,10.1,9.33,10.1h2.92v3.11H851.1v-3.11h3.69c5.63,0,8.26-2.43,8.26-9.03v-43.23c-3.2-4.08-7.48-6.51-11.95-6.9v-3.11
		h20.88l44.1,44.59v-32.44c0-6.32-2.43-9.04-8.16-9.04h-3.79v-3.11H932.21z"/>
	<path class="st4" d="M1017.17,303.66c-6.6,12.14-17.1,18.36-30.89,18.36c-24.38,0-37.98-17.09-37.98-33.9
		c0-19.04,17.2-34.49,38.66-34.49c10.1,0,16.81,3.7,19.92,3.7c1.94,0,3.2-1.46,3.2-3.7h3.11l1.65,21.76h-3.2
		c-3.98-10.3-13.6-17.09-23.41-17.09c-14.58,0-24.77,12.14-24.77,29.53c0,16.51,10.78,28.17,26.33,28.17
		c10.1,0,18.26-4.85,24.38-14.47L1017.17,303.66z"/>
	<path class="st4" d="M1031.03,320.18v-3.11h2.53c7.67,0,9.33-2.52,9.33-10.1v-38.95c0-7.77-1.85-10.1-9.33-10.1h-2.53v-3.11h36.52
		v3.11h-2.04c-7.19,0-9.22,2.24-9.22,10.1v38.95c0,7.87,2.04,10.1,9.22,10.1h2.04v3.11H1031.03z"/>
	<path class="st4" d="M1098.03,306.67c-1.07,2.34-1.65,3.99-1.65,5.15c0,3.3,2.72,5.14,8.06,5.24v3.11h-23.51v-3.11
		c4.47-0.1,7.87-2.82,11.37-10.4l24.48-53.04h2.82l29.14,57.9c2.23,4.37,4.27,5.24,8.84,5.54v3.11h-29.72v-3.11
		c5.63-0.1,6.99-1.07,6.99-3.4c0-1.27-0.58-3.01-1.84-5.34l-3.01-5.64h-30.11L1098.03,306.67z M1114.25,271.61l-11.95,25.84h24.97
		L1114.25,271.61z"/>
	<path class="st4" d="M1235.93,302.5l-5.92,17.68h-59.26v-3.11h2.24c7.19,0,9.23-2.14,9.23-10v-39.05c0-7.19-1.56-10.1-9.23-10.1
		h-1.66v-3.11h35.85v3.11h-2.24c-7.18,0-9.33,2.24-9.33,10.1v40.22c0,6.02,0.58,6.7,6.02,6.7h11.85c9.23,0,13.5-1.65,19.23-12.43
		H1235.93z"/>
	<path class="st4" d="M1284.95,320.18v-3.11h2.53c7.67,0,9.33-2.52,9.33-10.1v-38.95c0-7.77-1.85-10.1-9.33-10.1h-2.53v-3.11h36.52
		v3.11h-2.04c-7.19,0-9.23,2.24-9.23,10.1v38.95c0,7.87,2.04,10.1,9.23,10.1h2.04v3.11H1284.95z"/>
	<path class="st4" d="M1416.74,254.8v3.11h-3.11c-6.12,0-8.16,2.72-8.16,10.1v52.75h-1.85l-51.19-51.19v37.39
		c0,7.87,2.04,10.1,9.33,10.1h2.92v3.11h-29.04v-3.11h3.69c5.63,0,8.26-2.43,8.26-9.03v-43.23c-3.2-4.08-7.48-6.51-11.95-6.9v-3.11
		h20.88l44.1,44.59v-32.44c0-6.32-2.43-9.04-8.16-9.04h-3.79v-3.11H1416.74z"/>
	<path class="st4" d="M1501.7,303.66c-6.6,12.14-17.1,18.36-30.89,18.36c-24.38,0-37.98-17.09-37.98-33.9
		c0-19.04,17.19-34.49,38.66-34.49c10.1,0,16.81,3.7,19.92,3.7c1.94,0,3.2-1.46,3.2-3.7h3.11l1.65,21.76h-3.2
		c-3.98-10.3-13.6-17.09-23.41-17.09c-14.57,0-24.77,12.14-24.77,29.53c0,16.51,10.78,28.17,26.33,28.17
		c10.1,0,18.26-4.85,24.38-14.47L1501.7,303.66z"/>
</g>
</svg>
