<svg id="Layer_1" data-name="Layer 1" xmlns="http://www.w3.org/2000/svg" viewBox="0 0 3840 1426.29"><defs><style>.cls-1{fill:#fff;opacity:0;}.cls-2{isolation:isolate;}.cls-3{fill:#245980;}.cls-4{fill:#265f89;}.cls-5{fill:#27608a;}.cls-6{fill:#245b83;}.cls-7{fill:#28638f;}.cls-8{fill:#368bca;}.cls-9{fill:#255d86;}.cls-10{fill:#eac546;}.cls-11{fill:#94802e;}.cls-12{fill:#917d2d;}.cls-13{fill:#7e7f7f;}.cls-14{fill:#7d7e7e;}.cls-15{fill:#c5c4c4;}.cls-16{fill:#23577e;}.cls-17{fill:#23587f;}.cls-18{fill:#23587e;}.cls-19{fill:#255d85;}</style></defs><rect class="cls-1" width="3840" height="1426.29"/><g class="cls-2"><polygon class="cls-3" points="1540.12 411.26 1518.2 435.37 1470.11 465.99 1491.66 441.74 1540.12 411.26"/><polygon class="cls-4" points="1491.66 441.74 1470.11 465.99 1287.36 263.06 1303.73 235.22 1491.66 441.74"/><polygon class="cls-5" points="1303.73 235.22 1287.36 263.06 1182.06 308.82 1196.95 280.21 1303.73 235.22"/><polygon class="cls-6" points="1053.86 218.78 1042.2 249.42 990.37 188.28 1000.58 156.56 1053.86 218.78"/><polygon class="cls-7" points="1285.65 136.65 1270.48 165.23 1042.2 249.42 1053.86 218.78 1285.65 136.65"/><polygon class="cls-8" points="1285.65 136.65 1053.86 218.78 1000.58 156.56 1236.22 83.3 1285.65 136.65"/><polygon class="cls-9" points="1445.05 518.33 1423.4 542.09 1231.09 322.56 1247.02 294.58 1445.05 518.33"/><polygon class="cls-4" points="1755.69 731.9 1726.21 750.38 1495.32 493.99 1517.62 470.27 1755.69 731.9"/><polygon class="cls-8" points="1565.45 438.6 1797.23 688.73 1755.69 731.9 1517.62 470.27 1565.45 438.6"/><polygon class="cls-9" points="1625.03 721.67 1597.78 741.15 1483.3 610.47 1506.84 588.13 1625.03 721.67"/><polygon class="cls-3" points="1392.98 503.81 1372.41 528.19 1313.14 565.93 1332.95 541.58 1392.98 503.81"/><polygon class="cls-6" points="1332.95 541.58 1313.14 565.93 1116.66 337.26 1130.46 308.23 1332.95 541.58"/><polygon class="cls-10" points="1249.43 494.21 1141.62 555.37 1103.16 508.11 1212.34 450.44 1249.43 494.21"/><polygon class="cls-11" points="1249.43 494.21 1231.74 519.91 1125.8 581.02 1141.62 555.37 1249.43 494.21"/><polygon class="cls-12" points="1141.62 555.37 1125.8 581.02 1088.57 534.83 1103.16 508.11 1141.62 555.37"/><polygon class="cls-13" points="1304.67 559.37 1285.26 583.68 1181.3 649.87 1198.97 625.85 1304.67 559.37"/><polygon class="cls-14" points="1198.97 625.85 1181.3 649.87 1142.98 602.33 1159.36 577.18 1198.97 625.85"/><polygon class="cls-15" points="1304.67 559.37 1198.97 625.85 1159.36 577.18 1266.53 514.38 1304.67 559.37"/><polygon class="cls-7" points="1026.7 228.4 1015.54 259.26 745.43 358.88 750.35 326.31 1026.7 228.4"/><polygon class="cls-16" points="868.08 418.81 859.76 448.92 802.24 374.35 808.75 342.57 868.08 418.81"/><polygon class="cls-5" points="1130.46 308.23 1116.66 337.26 859.76 448.92 868.08 418.81 1130.46 308.23"/><polygon class="cls-8" points="1130.46 308.23 868.08 418.81 808.75 342.57 1305.22 157.76 1540.12 411.26 1491.66 441.74 1303.73 235.22 1196.95 280.21 1392.98 503.81 1332.95 541.58 1130.46 308.23"/><polygon class="cls-17" points="1297.9 743.51 1276.93 764.65 1211.64 683.71 1230.33 660.54 1297.9 743.51"/><polygon class="cls-18" points="1506.84 588.13 1483.3 610.47 1276.93 764.65 1297.9 743.51 1506.84 588.13"/><polygon class="cls-19" points="1187.68 418.19 1171.88 445.43 912.56 578.37 922.87 550.92 1187.68 418.19"/><polygon class="cls-18" points="1428.02 903.28 1402.48 920.29 1597.78 741.15 1625.03 721.67 1428.02 903.28"/><polygon class="cls-17" points="1502.64 994.9 1474.38 1009.42 1402.48 920.29 1428.02 903.28 1502.64 994.9"/><polygon class="cls-8" points="1247.02 294.58 1304.61 269.05 1738.66 749.61 1502.64 994.9 1428.02 903.28 1625.03 721.67 1506.84 588.13 1297.9 743.51 1230.33 660.54 1445.05 518.33 1247.02 294.58"/><polygon class="cls-16" points="1220.02 866.4 1199.9 885.31 976.09 595.43 988.21 568.82 1220.02 866.4"/><polygon class="cls-8" points="1155.36 853.62 1066.18 920.15 594.3 282.86 973.02 165.12 1026.7 228.4 750.35 326.31 860.03 469.12 1129.29 349.36 1187.68 418.19 922.87 550.92 1155.36 853.62"/><polygon class="cls-18" points="1155.36 853.62 1137.04 873.17 1049.91 938.47 1066.18 920.15 1155.36 853.62"/><polygon class="cls-16" points="1066.18 920.15 1049.91 938.47 593.82 317.59 594.3 282.86 1066.18 920.15"/><polygon class="cls-8" points="437.49 331.61 550.32 296.53 785.67 619.69 676.57 674.37 437.49 331.61"/><polygon class="cls-16" points="676.57 674.37 673.25 701.04 441.87 367.14 437.49 331.61 676.57 674.37"/><polygon class="cls-19" points="785.67 619.69 779.04 646.81 673.25 701.04 676.57 674.37 785.67 619.69"/><polygon class="cls-16" points="1032.62 1191.7 1015.79 1202 699.23 744.62 703.49 719.2 1032.62 1191.7"/><polygon class="cls-8" points="1298.84 804.68 1512.58 637.31 1577.84 711.72 1032.62 1191.7 703.49 719.2 812.31 661.72 1055.14 995.52 1220.02 866.4 988.21 568.82 1070.84 525.18 1298.84 804.68"/><polygon class="cls-18" points="1067.81 1235.32 1049.55 1244.06 1374.25 946.2 1399.39 929.66 1067.81 1235.32"/><polygon class="cls-16" points="1153.33 1357.94 1131.42 1362.2 1049.55 1244.06 1067.81 1235.32 1153.33 1357.94"/><polygon class="cls-8" points="1067.81 1235.32 1399.39 929.66 1474.99 1023.63 1153.33 1357.94 1067.81 1235.32"/></g></svg>