<svg id="Layer_1" data-name="Layer 1" xmlns="http://www.w3.org/2000/svg" viewBox="0 0 42.3 42.3"><defs><style>.cls-1{fill:#c6c6c6;}.cls-2{fill:#ecc747;}.cls-3{fill:#358ccb;fill-rule:evenodd;}</style></defs><g id="Capa_1" data-name="Capa 1"><rect class="cls-1" x="21.8" y="17.92" width="2.58" height="6.38"/><rect class="cls-2" x="17.92" y="17.92" width="2.58" height="6.38"/><path class="cls-3" d="M4.23,0H0V16.2H4.23ZM0,38.07V42.3H16.2V38.07Zm42.3-12H38.07V42.3H42.3Zm0-21.87V0H26.1V4.23ZM16.2,18H12V32.19H4.23V18H0V36.42H30.54V32.19H16.2Zm8.18-1.73V12H10.11V4.23H24.38V0H5.88V30.54h4.23V16.2Zm1.72,8.11h4.23V10.11h7.74V24.3H42.3V5.88H11.76v4.23H26.1ZM18,26.17v4.16H32.26v7.74H18V42.3H36.49V11.76H32.26V26.1Z"/></g></svg>